#define arch_width 11
#define arch_height 10
static unsigned char arch_bits[] = {
   0x20, 0x00, 0x20, 0x00, 0x70, 0x00, 0x70, 0x00, 0xf8, 0x00, 0xf8, 0x00,
   0xdc, 0x01, 0x8c, 0x01, 0x8e, 0x03, 0x02, 0x02 };
