#define cal_width 11
#define cal_height 11
static unsigned char cal_bits[] = {
   0x00, 0x00, 0x8c, 0x01, 0xff, 0x07, 0x7f, 0x05, 0xff, 0x07, 0x55, 0x05,
   0xff, 0x07, 0x55, 0x05, 0xff, 0x07, 0xd5, 0x07, 0xff, 0x07 };
