#define capslock_width 11
#define capslock_height 11
static unsigned char capslock_bits[] = {
   0xff, 0x07, 0x01, 0x04, 0x11, 0x04, 0x11, 0x04, 0x11, 0x04, 0x71, 0x04,
   0x41, 0x04, 0x41, 0x04, 0x41, 0x04, 0x01, 0x04, 0xff, 0x07 };
