#define cpu_width 11
#define cpu_height 11
static unsigned char cpu_bits[] = {
   0xfb, 0x06, 0x01, 0x04, 0xfc, 0x01, 0xfd, 0x05, 0xfd, 0x05, 0xfd, 0x05,
   0xfd, 0x05, 0xfd, 0x05, 0xfc, 0x01, 0x01, 0x04, 0xfb, 0x06 };
