#define csq_width 13
#define csq_height 13
static unsigned char csq_bits[] = {
   0x00, 0x00, 0x0c, 0x00, 0x10, 0x00, 0x26, 0x00, 0x28, 0x00, 0x0a, 0x10,
   0x01, 0x18, 0x01, 0x1a, 0x01, 0x1b, 0x41, 0x1b, 0x61, 0x1b, 0x69, 0x1b,
   0x6d, 0x1b };
