#define kbd_width 15
#define kbd_height 15
static unsigned char kbd_bits[] = {
   0x00, 0x00, 0x00, 0x00, 0xff, 0x7f, 0x55, 0x55, 0xff, 0x7f, 0x55, 0x55,
   0xff, 0x7f, 0x55, 0x55, 0xff, 0x7f, 0x07, 0x70, 0xff, 0x7f, 0x00, 0x00,
   0x00, 0x00, 0x00, 0x00, 0x00, 0x00 };
