#define music_width 11
#define music_height 11
static unsigned char music_bits[] = {
   0x80, 0x00, 0xc0, 0x00, 0xe0, 0x00, 0xf0, 0x00, 0xf8, 0x00, 0xfc, 0x00,
   0xf8, 0x00, 0xf0, 0x00, 0xe0, 0x00, 0xc0, 0x00, 0x80, 0x00 };
