#define numlock_width 11
#define numlock_height 11
static unsigned char numlock_bits[] = {
   0x77, 0x07, 0x77, 0x07, 0x77, 0x07, 0x00, 0x00, 0x77, 0x07, 0x77, 0x07,
   0x77, 0x07, 0x00, 0x00, 0x77, 0x07, 0x77, 0x07, 0x77, 0x07 };
