#define pause_width 11
#define pause_height 11
static unsigned char pause_bits[] = {
   0x8c, 0x01, 0x8c, 0x01, 0x8c, 0x01, 0x8c, 0x01, 0x8c, 0x01, 0x8c, 0x01,
   0x8c, 0x01, 0x8c, 0x01, 0x8c, 0x01, 0x8c, 0x01, 0x8c, 0x01 };
