#define sound_on_width 11
#define sound_on_height 10
static unsigned char sound_on_bits[] = {
   0x80, 0x00, 0xc0, 0x00, 0xe0, 0x00, 0xf8, 0x00, 0xf8, 0x00, 0xf8, 0x00,
   0xf8, 0x00, 0xe0, 0x00, 0xc0, 0x00, 0x80, 0x00 };
