#define sound_off_width 11
#define sound_off_height 10
static unsigned char sound_off_bits[] = {
   0x80, 0x00, 0xc0, 0x00, 0x60, 0x01, 0xb8, 0x00, 0x58, 0x00, 0xa8, 0x00,
   0xd0, 0x00, 0xe8, 0x00, 0xc4, 0x00, 0x80, 0x00 };
