#define brightness_width 13
#define brightness_height 13
static unsigned char brightness_bits[] = {
   0x00, 0x00, 0x40, 0x00, 0x44, 0x04, 0x08, 0x02, 0xe0, 0x00, 0xf0, 0x01,
   0xf6, 0x0d, 0xf0, 0x01, 0xe0, 0x00, 0x08, 0x02, 0x44, 0x04, 0x40, 0x00,
   0x00, 0x00 };
