#define battery_charging_width 16
#define battery_charging_height 16
static unsigned char battery_charging_bits[] = {
   0x00, 0x00, 0x00, 0x00, 0x00, 0x00, 0xfe, 0xff, 0x02, 0x80, 0x03, 0x80,
   0xf3, 0x81, 0x03, 0x81, 0x03, 0x9f, 0x03, 0x80, 0x02, 0x80, 0xfe, 0xff,
   0x00, 0x00, 0x00, 0x00, 0x00, 0x00, 0x00, 0x00 };
