#define battary_90_width 16
#define battary_90_height 16
static unsigned char battary_90_bits[] = {
   0x00, 0x00, 0x00, 0x00, 0x00, 0x00, 0xfe, 0xff, 0x02, 0x80, 0xf3, 0xbf,
   0xf3, 0xbf, 0xf3, 0xbf, 0xf3, 0xbf, 0xf3, 0xbf, 0x02, 0x80, 0xfe, 0xff,
   0x00, 0x00, 0x00, 0x00, 0x00, 0x00, 0x00, 0x00 };
