#define battary_30_width 16
#define battary_30_height 16
static unsigned char battary_30_bits[] = {
   0x00, 0x00, 0x00, 0x00, 0x00, 0x00, 0xfe, 0xff, 0x02, 0x80, 0x03, 0xbc,
   0x03, 0xbc, 0x03, 0xbc, 0x03, 0xbc, 0x03, 0xbc, 0x02, 0x80, 0xfe, 0xff,
   0x00, 0x00, 0x00, 0x00, 0x00, 0x00, 0x00, 0x00 };
