#define battary_80_width 16
#define battary_80_height 16
static unsigned char battary_80_bits[] = {
   0x00, 0x00, 0x00, 0x00, 0x00, 0x00, 0xfe, 0xff, 0x02, 0x80, 0xe3, 0xbf,
   0xe3, 0xbf, 0xe3, 0xbf, 0xe3, 0xbf, 0xe3, 0xbf, 0x02, 0x80, 0xfe, 0xff,
   0x00, 0x00, 0x00, 0x00, 0x00, 0x00, 0x00, 0x00 };
