#define battary_60_width 16
#define battary_60_height 16
static unsigned char battary_60_bits[] = {
   0x00, 0x00, 0x00, 0x00, 0x00, 0x00, 0xfe, 0xff, 0x02, 0x80, 0x83, 0xbf,
   0x83, 0xbf, 0x83, 0xbf, 0x83, 0xbf, 0x83, 0xbf, 0x02, 0x80, 0xfe, 0xff,
   0x00, 0x00, 0x00, 0x00, 0x00, 0x00, 0x00, 0x00 };
