#define battary_20_width 16
#define battary_20_height 16
static unsigned char battary_20_bits[] = {
   0x00, 0x00, 0x00, 0x00, 0x00, 0x00, 0xfe, 0xff, 0x02, 0x80, 0x03, 0xb8,
   0x03, 0xb8, 0x03, 0xb8, 0x03, 0xb8, 0x03, 0xb8, 0x02, 0x80, 0xfe, 0xff,
   0x00, 0x00, 0x00, 0x00, 0x00, 0x00, 0x00, 0x00 };
