#define battary_70_width 16
#define battary_70_height 16
static unsigned char battary_70_bits[] = {
   0x00, 0x00, 0x00, 0x00, 0x00, 0x00, 0xfe, 0xff, 0x02, 0x80, 0xc3, 0xbf,
   0xc3, 0xbf, 0xc3, 0xbf, 0xc3, 0xbf, 0xc3, 0xbf, 0x02, 0x80, 0xfe, 0xff,
   0x00, 0x00, 0x00, 0x00, 0x00, 0x00, 0x00, 0x00 };
