#define battary_10_width 16
#define battary_10_height 16
static unsigned char battary_10_bits[] = {
   0x00, 0x00, 0x00, 0x00, 0x00, 0x00, 0xfe, 0xff, 0x02, 0x80, 0x03, 0xb0,
   0x03, 0xb0, 0x03, 0xb0, 0x03, 0xb0, 0x03, 0xb0, 0x02, 0x80, 0xfe, 0xff,
   0x00, 0x00, 0x00, 0x00, 0x00, 0x00, 0x00, 0x00 };
