#define battary_50_width 16
#define battary_50_height 16
static unsigned char battary_50_bits[] = {
   0x00, 0x00, 0x00, 0x00, 0x00, 0x00, 0xfe, 0xff, 0x02, 0x80, 0x03, 0xbf,
   0x03, 0xbf, 0x03, 0xbf, 0x03, 0xbf, 0x03, 0xbf, 0x02, 0x80, 0xfe, 0xff,
   0x00, 0x00, 0x00, 0x00, 0x00, 0x00, 0x00, 0x00 };
