#define battary_40_width 16
#define battary_40_height 16
static unsigned char battary_40_bits[] = {
   0x00, 0x00, 0x00, 0x00, 0x00, 0x00, 0xfe, 0xff, 0x02, 0x80, 0x03, 0xbe,
   0x03, 0xbe, 0x03, 0xbe, 0x03, 0xbe, 0x03, 0xbe, 0x02, 0x80, 0xfe, 0xff,
   0x00, 0x00, 0x00, 0x00, 0x00, 0x00, 0x00, 0x00 };
